<?xml version="1.0" encoding="UTF-8" standalone="no"?>
<!DOCTYPE svg PUBLIC "-//W3C//DTD SVG 1.1//EN" "http://www.w3.org/Graphics/SVG/1.1/DTD/svg11.dtd">
<svg width="100%" height="100%" viewBox="0 0 3508 4961" version="1.1" xmlns="http://www.w3.org/2000/svg" xmlns:xlink="http://www.w3.org/1999/xlink" xml:space="preserve" xmlns:serif="http://www.serif.com/" style="fill-rule:evenodd;clip-rule:evenodd;stroke-linejoin:round;stroke-miterlimit:2;">
    <path d="M2354.08,2059.64C2392.26,2119.04 2425.08,2177.08 2449.69,2230.68C2632.52,2628.86 2895.66,2782.32 2577.62,2678.97C2361.58,2608.77 2007.26,2707.19 1793.02,2628.28C1590.32,2606.11 1072.53,2101.89 1000.56,1796.31C920.869,1457.92 756.578,1173.97 817.987,1091.73C831.655,1073.43 914.08,1113.43 961.019,1116.79C1001.29,1119.67 1088.8,1104.88 1118.81,1101.64C1351.91,1076.49 1533.31,1219.48 1572.06,1456.38C1579.23,1500.23 1568.74,1658.41 1487.16,1768.91C1422.34,1856.7 1293.4,1775.78 1263.36,1769.38C1259.14,1768.49 1773.91,2388.32 1778.2,2388.67C1782.49,2389.02 1490.68,1927.71 1491.19,1923.43C1523.24,1659.37 1766.9,1454.07 1789.72,1463.8C1799.74,1468.07 1810.49,1473.6 1821.87,1480.26C1943.09,1551.25 2135.53,1751.88 2284.15,1957.37C2283.86,1959.73 2283.64,1962.11 2283.49,1964.51C2282.62,1978.41 2283.56,1992.24 2286.29,2005.98C2289.03,2019.73 2293.05,2031.15 2298.36,2040.25C2305.3,2052.14 2314.61,2059.47 2326.27,2062.24C2335.3,2064.38 2344.57,2063.52 2354.08,2059.64ZM2284.15,1957.37C2285.8,1943.69 2289.58,1930.67 2295.5,1918.3C2304.21,1900.62 2315.06,1887.98 2328.05,1880.4C2337.45,1874.91 2346.55,1873.59 2355.37,1876.41C2364.19,1879.24 2371.63,1885.84 2377.7,1896.24C2382.43,1904.33 2385.23,1914.02 2386.12,1925.29C2387.01,1936.57 2385.67,1948.67 2382.1,1961.61C2379.27,1972.37 2375.69,1981.57 2371.36,1989.18C2367.03,1996.81 2362.42,2002.04 2357.52,2004.9C2355.32,2006.19 2352.75,2006.95 2349.81,2007.19C2354.41,2012.55 2360.06,2013.27 2366.76,2009.36C2374.25,2004.98 2381.43,1994.9 2388.29,1979.1C2392.31,1969.92 2395.52,1964.63 2397.92,1963.23C2400.91,1961.48 2404.18,1960.64 2407.71,1960.73C2411.24,1960.81 2413.51,1961.7 2414.5,1963.4C2415.55,1965.2 2415.47,1968.39 2414.26,1972.98C2412.06,1981.37 2408.98,1990.1 2405.03,1999.18C2401.08,2008.25 2396.89,2016.33 2392.45,2023.41C2388,2030.49 2383.15,2036.87 2377.9,2042.56C2372.64,2048.24 2367.51,2052.54 2362.51,2055.46C2359.68,2057.11 2356.87,2058.5 2354.08,2059.64C2332.33,2025.8 2308.85,1991.52 2284.15,1957.37ZM1306.19,1275.49C1189.27,1275.49 941.595,1179.29 1000.72,1305.05C1045.84,1401.02 1083.42,1561.61 1178.09,1630.23C1334.44,1743.55 1468.7,1635.88 1488.49,1531.69C1498.35,1479.84 1423.12,1275.49 1306.19,1275.49ZM1882.14,2267.66C1882.92,2269.4 1884.08,2271.63 1885.62,2274.34C1900.41,2300.28 1915.55,2308.83 1931.03,2300.01C1936.76,2296.74 1941.6,2292.15 1945.55,2286.23C1949.51,2280.31 1952.81,2272.67 1955.46,2263.3C1951.02,2259.71 1947.04,2255.78 1943.55,2251.51C1942.21,2249.87 1940.53,2247.63 1938.51,2244.79C1936.49,2241.94 1934.77,2239.39 1933.35,2237.14C1931.93,2234.88 1929.94,2231.49 1927.36,2226.97C1922.43,2218.32 1917.43,2208.85 1912.36,2198.55C1910.28,2193.74 1909.36,2191.54 1909.59,2191.94C1907.18,2187.72 1904.94,2185.43 1902.88,2185.08C1900.81,2184.72 1897.06,2186.09 1891.63,2189.19C1891.97,2180.2 1890.45,2172.74 1887.07,2166.81C1882.49,2158.77 1874.54,2154.47 1863.24,2153.92C1851.94,2153.37 1839.85,2156.77 1826.98,2164.1C1811.7,2172.81 1798.94,2187.35 1788.7,2207.7C1778.79,2227.47 1772.91,2248.01 1771.06,2269.31C1770.06,2282.27 1770.53,2294.66 1772.47,2306.47C1774.41,2318.29 1777.41,2327.76 1781.48,2334.9C1788.07,2346.47 1797.18,2353.92 1808.82,2357.28C1820.46,2360.64 1831.91,2359.11 1843.17,2352.69C1848.7,2349.53 1853.75,2344.32 1858.33,2337.05C1862.91,2329.78 1867.11,2320.43 1870.91,2309C1874.72,2297.57 1878.18,2283.71 1881.28,2267.42L1882.14,2267.66ZM1871.25,2227.39L1872.19,2227.64L1870.01,2233.28C1865.91,2249.21 1861.63,2262.57 1857.19,2273.36C1852.75,2284.15 1849.08,2290.38 1846.16,2292.04C1842.74,2293.99 1838.87,2293.8 1834.55,2291.47C1830.22,2289.14 1826.48,2285.21 1823.33,2279.68C1818.57,2271.33 1815.9,2260.27 1815.3,2246.49C1814.7,2232.71 1816.19,2218.08 1819.75,2202.59C1821.12,2197.28 1822.61,2194.17 1824.22,2193.25C1826.03,2192.22 1828.7,2193.06 1832.25,2195.77C1835.79,2198.48 1838.79,2201.99 1841.26,2206.32C1845.55,2213.86 1847.32,2223.51 1846.56,2235.26C1846.67,2239.19 1846.93,2241.51 1847.33,2242.22C1848.48,2244.23 1851.01,2244.12 1854.93,2241.88C1858.15,2240.05 1862.81,2236.06 1868.9,2229.92L1871.25,2227.39ZM2083.16,2017.27C2077.43,2022.4 2073.73,2029.17 2072.06,2037.58C2070.39,2045.99 2071.37,2053.37 2074.98,2059.7C2077.04,2063.32 2079.39,2065.45 2082.01,2066.08C2084.64,2066.71 2087.99,2065.93 2092.07,2063.74C2092.25,2064.3 2092.76,2066.12 2093.57,2069.18C2094.39,2072.25 2095.18,2075.16 2095.95,2077.91C2100.03,2093.71 2103.5,2106.18 2106.39,2115.32C2109.27,2124.47 2112.14,2131.56 2115.01,2136.59C2121.71,2148.35 2130.4,2155.92 2141.07,2159.3C2151.73,2162.67 2162.36,2161.35 2172.93,2155.32C2177.16,2152.91 2181.38,2149.3 2185.59,2144.51C2189.79,2139.71 2193.24,2134.55 2195.95,2129.01C2198.41,2123.74 2200.26,2118.23 2201.5,2112.46C2202.74,2106.69 2202.9,2103 2201.98,2101.39C2201.64,2100.79 2200.56,2101 2198.75,2102.03L2197.4,2102.81C2182.01,2111.58 2169.8,2108.03 2160.75,2092.15C2158.8,2088.74 2157.01,2084.9 2155.38,2080.64C2150.4,2069.35 2146.64,2060.43 2144.09,2053.89C2141.78,2046.14 2140.15,2039.94 2139.21,2035.28C2146.36,2030.54 2151.16,2026.47 2153.62,2023.07C2156.83,2018.44 2158.51,2013.09 2158.64,2007.01C2158.77,2000.94 2157.32,1995.24 2154.28,1989.91C2152.56,1986.89 2150.42,1985.35 2147.84,1985.28C2145.27,1985.22 2140.71,1986.45 2134.15,1988.99C2132.31,1989.51 2130.48,1990.15 2128.65,1990.93C2125.28,1979.13 2122.79,1965.83 2121.19,1951.03C2120.16,1942.18 2118.99,1936.59 2117.67,1934.28C2115.72,1930.85 2113.17,1928.84 2110.02,1928.23C2106.88,1927.62 2103.29,1928.47 2099.26,1930.76C2092.42,1934.66 2086.53,1941.29 2081.58,1950.63C2079.06,1955.8 2077.67,1960.85 2077.42,1965.79C2076.95,1976.19 2078.72,1992.63 2082.73,2015.12L2083.16,2017.27ZM2266.95,2107.71L2267.25,2107.54C2270.77,2105.54 2273.37,2102.99 2275.07,2099.89C2277.39,2095.1 2277.74,2088.24 2276.1,2079.31C2272.21,2057.02 2267.21,2036.26 2261.12,2017.02C2255.03,1997.78 2248.34,1981.78 2241.06,1969.02C2236.13,1960.37 2230.37,1954.4 2223.76,1951.11C2217.16,1947.81 2210.94,1947.83 2205.11,1951.15C2199.58,1954.3 2196.38,1958.73 2195.5,1964.42C2192.99,1978.24 2194.59,1997.34 2200.3,2021.73C2206,2046.12 2213.59,2066.6 2223.04,2083.19C2227.28,2090.63 2231.51,2096.25 2235.74,2100.03C2239.96,2103.82 2245.07,2106.67 2251.08,2108.57C2256.97,2110.28 2262.26,2109.99 2266.95,2107.71ZM2198.68,1945.82L2199.14,1945.56C2203.46,1943.1 2206.55,1938.71 2208.41,1932.38C2210.27,1926.06 2210.61,1919.01 2209.43,1911.22C2208.26,1903.43 2205.63,1895.97 2201.56,1888.83C2198.3,1883.1 2194.78,1879.68 2191.01,1878.56C2187.25,1877.44 2182.85,1878.32 2177.82,1881.18C2174.91,1882.85 2172.75,1884.61 2171.35,1886.48C2169.95,1888.34 2168.89,1890.74 2168.16,1893.68C2166.65,1899.21 2166.59,1906.4 2167.98,1915.27C2169.37,1924.13 2171.64,1931.33 2174.79,1936.86C2181.1,1947.92 2189.06,1950.91 2198.68,1945.82ZM1999.51,2152.82L1998.56,2152.56C1992.13,2131.61 1986.09,2116.16 1980.41,2106.21C1972.67,2092.64 1963.58,2088.83 1953.12,2094.8C1946.68,2098.46 1942.5,2103.85 1940.55,2110.95C1937.87,2121.67 1937.74,2134.53 1940.16,2149.54C1941.39,2158.7 1943.07,2168.13 1945.2,2177.83C1947.34,2187.54 1949.7,2196.82 1952.28,2205.67C1954.86,2214.52 1957.55,2222.68 1960.34,2230.15C1963.13,2237.62 1965.87,2243.71 1968.57,2248.44C1972.92,2256.08 1978.49,2261.16 1985.26,2263.7C1992.03,2266.23 1998.63,2265.66 2005.07,2262C2009.8,2259.3 2012.96,2255.03 2014.56,2249.2C2015.35,2244.75 2016.11,2239.65 2016.83,2233.91C2018.77,2219.08 2021.7,2202.03 2025.63,2182.74C2026.51,2178.91 2027.48,2174.83 2028.54,2170.49C2029.6,2166.16 2030.91,2160.35 2032.49,2153.06L2033.43,2153.32C2036.75,2161.95 2040.08,2169.18 2043.4,2175.01C2048.39,2183.75 2054.14,2190.87 2060.66,2196.34C2067.17,2201.82 2073.89,2205.18 2080.8,2206.44C2087.71,2207.7 2094.03,2206.69 2099.76,2203.42C2103.28,2201.42 2107.03,2197.95 2111.01,2193.01C2114.99,2188.08 2117.77,2183.37 2119.34,2178.88C2120.03,2177.28 2119.91,2175.68 2119,2174.07C2118.25,2172.77 2116.34,2170.59 2113.28,2167.55C2109.69,2164.53 2106.46,2161.31 2103.57,2157.89C2099.02,2152.23 2093.87,2144.37 2088.14,2134.32C2083.04,2125.37 2078.2,2115.47 2073.62,2104.63C2070.07,2096.53 2067.17,2090.52 2064.94,2086.6C2059.55,2077.15 2054.31,2071.35 2049.22,2069.19C2044.13,2067.03 2038.02,2067.98 2030.88,2072.05C2026.47,2074.56 2022.75,2078.15 2019.75,2082.8C2016.74,2087.45 2013.97,2093.8 2011.44,2101.85C2008.91,2109.89 2005.95,2121.63 2002.56,2137.05L1999.51,2152.82ZM2346.71,2002.57C2349.5,1996.79 2351.19,1991.65 2351.78,1987.15C2353.28,1977.56 2353.03,1967.72 2351.03,1957.64C2350.12,1950.8 2348.33,1943.6 2345.66,1936.05C2343,1928.49 2339.94,1921.77 2336.5,1915.87C2333.29,1910.37 2330.53,1908.3 2328.24,1909.64C2325.04,1911.51 2324.26,1921.41 2325.89,1939.35C2326.95,1950.12 2328.72,1960.44 2331.2,1970.32C2333.68,1980.19 2336.7,1988.18 2340.26,1994.28C2341.49,1996.37 2343.64,1999.14 2346.71,2002.57Z" style="fill:rgb(0,131,14);"/>
    <path d="M1595.46,2116.16C1598.2,2117.53 1600.14,2120.25 1600.4,2123.44C1620.26,2152.71 1639.92,2181.74 1658.36,2208.88C1658.94,2209.57 1659.51,2210.26 1660.05,2210.94C1675.57,2230.35 1685.29,2245.34 1689.54,2254.56C1727.28,2309.57 1755.84,2349.81 1763.7,2355.95C1833.93,2410.78 1916.44,2456.85 2002.69,2488.33C2091.15,2520.62 2183.56,2537.57 2270.68,2532.76C2348.03,2528.49 2410.68,2536.02 2460.91,2548.88C2558.17,2573.77 2609.22,2618.67 2630.22,2637.87C2641.19,2647.89 2677.62,2675.5 2714.18,2701.97C2753.7,2730.58 2792.58,2759 2797.74,2759C2802.68,2759 2806.7,2763.02 2806.7,2767.96C2806.7,2772.91 2802.68,2776.92 2797.74,2776.92C2793.53,2776.92 2768.51,2762.26 2738.55,2741.33C2692.78,2709.35 2632.87,2664.57 2618.13,2651.1C2598.08,2632.77 2549.3,2590 2456.47,2566.24C2407.67,2553.74 2346.8,2546.51 2271.67,2550.66C2182.24,2555.59 2087.36,2538.31 1996.55,2505.17C1908.53,2473.04 1824.34,2426.03 1752.67,2370.07C1744.79,2363.91 1716.31,2324.56 1678.84,2270.11C1668.52,2255.11 1657.48,2238.95 1645.96,2222.04C1645.93,2222.01 1645.91,2221.98 1645.88,2221.95C1645.49,2221.46 1644.95,2220.79 1644.27,2219.94C1630.46,2203.33 1607.85,2182.49 1594.48,2160.66C1592.39,2157.25 1590.52,2153.81 1588.92,2150.36C1566.68,2122.13 1540.39,2088.43 1514.46,2054.47C1466.37,1991.48 1419.59,1927.6 1402,1895.77C1393.55,1880.5 1393.52,1869.36 1395.98,1866.16C1398.63,1862.71 1405.27,1859.41 1413.95,1866.22C1421.03,1871.77 1434.08,1887.17 1450.98,1909.5C1486.93,1957.03 1541.66,2036.93 1595.46,2116.16Z" style="fill:white;"/>
    <g transform="matrix(1.05363,0.30262,-0.30262,1.05363,742.794,-964.339)">
        <g transform="matrix(0.999948,-0.0101668,0.0101668,0.999948,-31.3672,20.5744)">
            <text x="2007.94px" y="3095.45px" style="font-family:'ForteMT', 'Forte', cursive;font-style:italic;font-size:129.753px;fill:rgb(0,131,14);">g</text>
        </g>
        <g transform="matrix(0.99951,-0.0312854,0.0312854,0.99951,-95.8,66.5632)">
            <text x="2079.19px" y="3094.67px" style="font-family:'ForteMT', 'Forte', cursive;font-style:italic;font-size:129.753px;fill:rgb(0,131,14);">e</text>
        </g>
        <g transform="matrix(0.998763,-0.0497324,0.0497324,0.998763,-151.176,109.986)">
            <text x="2134.6px" y="3092.91px" style="font-family:'ForteMT', 'Forte', cursive;font-style:italic;font-size:129.753px;fill:rgb(0,131,14);">t</text>
        </g>
        <g transform="matrix(0.995794,-0.0916189,0.0916189,0.995794,-273.67,215.804)">
            <text x="2213.66px" y="3088.67px" style="font-family:'ForteMT', 'Forte', cursive;font-style:italic;font-size:129.753px;fill:rgb(0,131,14);">p</text>
        </g>
        <g transform="matrix(0.991298,-0.131634,0.131634,0.991298,-385.826,327.599)">
            <text x="2284.97px" y="3082.09px" style="font-family:'ForteMT', 'Forte', cursive;font-style:italic;font-size:129.753px;fill:rgb(0,131,14);">l</text>
        </g>
        <g transform="matrix(0.983759,-0.179493,0.179493,0.983759,-513.759,470.635)">
            <text x="2343.85px" y="3074.35px" style="font-family:'ForteMT', 'Forte', cursive;font-style:italic;font-size:129.753px;fill:rgb(0,131,14);">e</text>
        </g>
        <g transform="matrix(0.967188,-0.254063,0.254063,0.967188,-699.973,709.909)">
            <text x="2398.39px" y="3064.87px" style="font-family:'ForteMT', 'Forte', cursive;font-style:italic;font-size:129.753px;fill:rgb(0,131,14);">n</text>
        </g>
        <g transform="matrix(0.929467,-0.368904,0.368904,0.929467,-950.663,1123.4)">
            <text x="2462.51px" y="3047.81px" style="font-family:'ForteMT', 'Forte', cursive;font-style:italic;font-size:129.753px;fill:rgb(0,131,14);">t</text>
        </g>
        <g transform="matrix(0.827879,-0.560907,0.560907,0.827879,-1269.91,1926.91)">
            <text x="2504.74px" y="3032.65px" style="font-family:'ForteMT', 'Forte', cursive;font-style:italic;font-size:129.753px;fill:rgb(0,131,14);">y</text>
        </g>
        <g transform="matrix(0.707492,-0.706721,0.706721,0.707492,-1346.44,2698.41)">
            <text x="2586.56px" y="2975.76px" style="font-family:'ForteMT', 'Forte', cursive;font-style:italic;font-size:129.753px;fill:rgb(0,131,14);">w</text>
        </g>
        <g transform="matrix(0.608596,-0.79348,0.79348,0.608596,-1274.83,3240.71)">
            <text x="2647.48px" y="2912.57px" style="font-family:'ForteMT', 'Forte', cursive;font-style:italic;font-size:129.753px;fill:rgb(0,131,14);">i</text>
        </g>
        <g transform="matrix(0.281174,-0.959657,0.959657,0.281174,-815.493,4621.5)">
            <text x="2677.18px" y="2855.11px" style="font-family:'ForteMT', 'Forte', cursive;font-style:italic;font-size:129.753px;fill:rgb(0,131,14);">t</text>
        </g>
        <g transform="matrix(0.447214,-0.894427,0.894427,0.447214,-1027.82,3963.67)">
            <text x="2692.76px" y="2813.36px" style="font-family:'ForteMT', 'Forte', cursive;font-style:italic;font-size:129.753px;fill:rgb(0,131,14);">h</text>
        </g>
    </g>
</svg>
